<?xml version="1.0" encoding="utf-8"?>
<!-- Generator: Adobe Illustrator 25.0.0, SVG Export Plug-In . SVG Version: 6.00 Build 0)  -->
<svg version="1.1" id="Layer_1" xmlns="http://www.w3.org/2000/svg" xmlns:xlink="http://www.w3.org/1999/xlink" x="0px" y="0px"
	 viewBox="0 0 372.5 119" style="enable-background:new 0 0 372.5 119;" xml:space="preserve">
<g>
	<path d="M137,60.5c0,12.1,8.9,23.9,23.5,23.9c6.9,0,14.6-5.3,19.6-12.4l-1.7-1.9c-5.4,5.5-9.1,6.8-14.1,6.8
		c-6.3,0-17.7-5.2-17.7-21.9c0.1-13.4,6.8-18.6,13-18.6c4.5,0,8.4,1.3,12.8,5.3c0.5,0.6,1.2,1,2,1.1c1.5,0,4-2.6,4.1-5.3
		c0.1-1.3-0.5-2.5-1.5-3.2c-2.4-1.8-7.4-3.1-10.4-3.1l-0.1-0.1c-4,0-11.1,1.5-18,6.7C141.2,43.1,137,51.5,137,60.5z"/>
	<path d="M217.7,17.1c3.5,0,6.4-2.8,6.4-6.3v-0.1c0-3.5-2.8-6.3-6.3-6.3h-0.1c-3.5,0.1-6.3,2.9-6.3,6.4
		C211.5,14.3,214.2,17,217.7,17.1z"/>
	<path d="M288.6,60.3c0,13.1,8.5,24.4,22.9,24.4c3.4,0,11.8-2.3,18.6-11.5l-1.6-1.9c-4.4,4.1-8.4,5.7-12.8,5.7
		c-8.4,0-17.9-6.2-17.8-23c13.9-0.5,28.3-1.7,30.1-2c2.2-0.5,2.7-1.3,2.7-3.6c0-8.6-7.6-17.2-17.3-17.2l-0.1,0.1
		c-5.6,0-12.2,3.3-16.9,8.5C291.3,45.4,288.5,52.7,288.6,60.3z M310.1,35.1L310.1,35.1c7,0,10.7,6.1,10.6,12c0,1.7-0.6,2.4-2.5,2.4
		c-6.5,0.2-13.1,0.3-19.7,0.3C299.7,40.4,305,35.1,310.1,35.1z"/>
	<path d="M277.3,71.4V37.3h12.3c1.6-0.8,2-3.3,1.3-4.6h-13.6c0,0,0-10,0-13c0-4.5,0.7-12.4,7.9-12.4c4,0,4,1.5,7.5,1.5
		c2.8,0,4.1-1.9,4.1-4.3c0-4.1-3.3-4.5-5.3-4.5c-1.6,0-7.7,1.3-14.2,7.6c-7.3,7-9.4,17.9-9.4,25.1h-4.4h-1h-12.6c0,0,0-9.4,0-13
		c0-4.5,0.7-12.4,7.9-12.4c4,0,4,1.5,7.5,1.5c2.8,0,4.1-1.9,4.1-4.3c0-4.1-3.3-4.5-5.3-4.5c-1.6,0-7.7,1.3-14.2,7.6
		c-7.3,7-9.4,17.9-9.4,25.1h-5.4l-3.2,3.3l0.6,1.3h8v34.2c0,7.4-1.1,8.7-7.4,9.4c-0.7,0.1-1.5,0.1-2.2,0c-7.2-0.7-8.2-2-8.2-9.6
		V31.1c-5.3,2.1-10.8,3.7-16.5,4.6v2.1c6.5,1.3,7.1,1.8,7.1,9.3v24.2c0,7.6-1,8.9-8.1,9.6c-0.5,0-1.1,0-1.6,0
		c-7.1-0.7-8.1-2-8.1-9.5V0.2c-5.6,1.9-11.4,3.3-17.2,4.1v2.1c7.2,0.8,7.9,1.3,7.9,9v56c0,7.5-1,8.8-8.1,9.5v2.4l25.5-0.1h84v-2.3
		C278.2,80.1,277.3,78.9,277.3,71.4z M268,71.5c0,7.4-1.7,9.5-8.8,9.5c-6.9,0-9.3-2-9.3-9.5V37.3h10h2.3h5.8V71.5z"/>
	<path d="M136.2,43.5c3.2-6.3,4-7.5,10-8.5v-2.4H125V35c6.5,0.9,7.5,2.2,5.8,7.6c-1.6,5.2-7.4,20.8-10.7,27.9l-10.9-28.9
		c-1.8-4.7-0.6-5.7,4.9-6.6v-2.3H91.9c1.5-4.7,2.8-8.2,3.6-10.5c3.5-9.9,4.8-11.2,12.1-12.3V7.5H82.1v2.4c8.8,1,9.8,2.5,8.4,9.9
		c-1.7,8.6-8.2,31.6-13.4,46.6h-0.2C70.1,47,63.3,27.8,57,8.6h-3c-6.1,19-12.7,38.4-18.9,57.9h-0.2C30,50.4,25.2,34.2,20.8,18.6
		c-1.8-6.5-0.3-7.7,7.7-8.7V7.5H0v2.4c6.5,0.9,8.3,2.4,11.1,11.7c6.3,21,12.8,42,18.8,63h3.3c6-18.9,12.3-37.6,19.1-57.8h0.2
		c5.2,14.4,13.7,38.8,19.9,57.8h3.3c6.5-21.3,11.7-38.2,15.4-49.4c5.4,1,6.5,2.6,8.9,8.8c3.2,8,8.8,22.3,13.6,35.8
		c0.7,1.6,0.7,3.4,0.1,5c-1.1,2.9-2.4,5.7-3.9,8.4c-2.3,4.1-4.5,7-8.3,9c-2,1-3.3,1.9-3.6,3.6c-0.4,2.8,2.3,6.1,5.3,6.6
		c1.7,0.5,3.6-0.5,4.2-2.2c2.8-6,5.2-13.7,13.2-32C128.6,59.6,133,49.8,136.2,43.5z"/>
	<path d="M334.4,34.4c4.1,0,7.4-3.3,7.4-7.4c-0.1-4.1-3.4-7.4-7.4-7.4c-4.1,0-7.4,3.3-7.4,7.4S330.3,34.4,334.4,34.4z M328.3,26.2
		c0.2-3.4,3.1-5.9,6.5-5.7c3.4,0.2,5.9,3.1,5.7,6.5c0,0.2,0,0.3,0,0.5c-0.2,3.4-3,6.1-6.4,5.9c-3.4-0.2-6-3-5.9-6.4
		C328.2,26.7,328.2,26.4,328.3,26.2z"/>
	<path d="M334.5,30.4c-1,0-1.1-0.1-1.1-1.1v-1.9h0.5c0.3,0,0.4,0.2,0.6,0.4s0.8,1.4,1.2,2c0.5,0.8,1.3,1.3,2.2,1.2h0.6v-0.4h-0.1
		c-0.3-0.1-0.5-0.3-0.7-0.5c-0.4-0.3-0.7-0.8-1-1.2c-0.4-0.5-0.9-1.4-1.1-1.8c1-0.2,1.7-1.1,1.8-2.1c0-1.7-1.5-2.1-2.9-2.1l-3.7-0.1
		v0.5c1,0.1,1.1,0.1,1.1,1.2v4.8c0,1-0.1,1-1.2,1.1v0.5h3.8V30.4z M333.4,24c0-0.5,0-0.5,0.8-0.5c0.1,0,0.1,0,0.2,0
		c0.9,0.1,1.6,0.9,1.5,1.8c0,0.6-0.3,1.2-0.8,1.5c-0.3,0.1-0.7,0.2-1,0.2h-0.8L333.4,24z"/>
	<path d="M134.6,103.7L134.6,103.7l0-0.3c2.3-0.6,5.7-2.3,5.7-6.3c0-1.9-0.9-3.7-2.4-4.8c-1.4-0.9-3.2-1.4-6.4-1.4h-10.9v1.2
		c3.4,0.2,3.6,0.5,3.6,4v17.2c0,3.6-0.2,3.8-3.9,4.1v1.2h9.4c2.9,0.1,5.7-0.4,8.3-1.7c2.5-1.2,4.1-3.7,4.1-6.4
		C142.1,106.2,138.8,104.3,134.6,103.7z M127.8,94.9c0-1.4,0.2-1.9,0.6-2.1c0.7-0.3,1.6-0.4,2.4-0.4c4,0,5.6,2.5,5.6,5.4
		c0,3.5-1.9,5.4-6.6,5.4h-2V94.9z M131.3,117.1c-2.7,0-3.5-0.9-3.5-3.9l-0.1-8.6h2c5.2,0,8.2,1.9,8.2,6.3
		C137.9,115.3,134.8,117.1,131.3,117.1z"/>
	<path d="M145.9,93.6c0.1,1.2,1,2.1,2.1,2.2c1.2,0,2.2-1,2.2-2.2v-0.1c0-1.2-0.9-2.1-2.1-2.1C146.9,91.4,145.9,92.4,145.9,93.6z"/>
	<path d="M150,114V99.3c-1.9,0.8-3.9,1.4-6,1.7v1c2.6,0.4,2.7,0.6,2.7,3.2v8.8c0,2.9-0.3,3.2-3,3.4v1.1h9.3v-1.1
		C150.3,117.2,150,116.9,150,114z"/>
	<path d="M164.1,99.5c-0.6,0-1.2,0.1-1.7,0.4l-3.4,1.4V88.2c-2,0.7-4.1,1.2-6.2,1.5v1c2.7,0.3,2.8,0.6,2.8,3.2v23.6
		c1.9,0.9,4,1.5,6.2,1.5c0.1,0,0.1,0,0.2,0c5.8,0,10.5-4.8,10.5-10.6C172.6,103.6,168.9,99.7,164.1,99.5z M163,117.4
		c-1.6,0-3.1-0.9-3.8-2.4c-0.2-0.4-0.3-0.9-0.3-1.4l0.1-11c1-0.5,2.1-0.8,3.3-0.8c3.5,0,6.5,2.8,6.5,7.7S166.5,117.4,163,117.4z"/>
	<path d="M179.8,114.1V88.3c-2.1,0.7-4.2,1.2-6.3,1.5v1c2.6,0.2,2.9,0.3,2.9,3.2v20.1c0,2.8-0.4,3.1-3.1,3.3v1.1h9.6v-1.1
		C180.1,117.2,179.8,116.9,179.8,114.1z"/>
	<path d="M193.1,99.5c-2.4,0.1-4.6,1.2-6.2,3.1c-1.8,2-2.8,4.7-2.8,7.4c0,4.8,3,9,8.2,9c1.3,0,4.2-0.8,6.9-4.1l-0.6-0.7
		c-1.3,1.3-3.1,2.1-4.9,2.1c-2.9,0-6.2-2.4-6.3-8.2c5.1-0.1,10.3-0.5,11.1-0.7c0.8-0.2,1-0.6,1-1.4
		C199.4,102.5,196.6,99.6,193.1,99.5z M194.7,106.1c-2.5,0.1-4.8,0.1-7.2,0.1c0.7-3.4,2.5-5.2,4.5-5.2c0.1,0,0.1,0,0.2,0
		c2.1,0.2,3.7,2.1,3.5,4.3C195.7,105.9,195.5,106.1,194.7,106.1z"/>
	<path d="M222.8,93.6c0.4,1.2,0.6,2.5,0.5,3.8l1.3-0.1c0.3-2.3,0.7-5.5,1-7.4v-0.1h-0.8c-0.6,0.8-1.4,1.2-2.3,1.1h-16
		c-1.2,0-1.6-0.1-2.1-1.1h-0.9c-0.5,2.4-1.2,5.1-2,7.6h1.2c0.5-1.3,1.2-2.6,2.1-3.8c0.8-1,1.6-1.3,5.2-1.3h2.2l-4,21.1
		c-0.6,3.3-0.9,3.6-4.5,3.9l-0.2,1.2H215l0.2-1.2c-3.8-0.2-4.1-0.5-3.5-3.9l3.9-21.1h2.6C221.5,92.3,222.4,92.6,222.8,93.6z"/>
	<path d="M235.4,102.3c0.3-0.5,0.3-1.2,0-1.8c-0.4-0.7-1.1-1.1-1.8-1.1c-1.7,0-4.2,2.8-6.4,7h-0.1l0.4-2.1c0.6-2.9,0.6-4.9-0.5-4.9
		s-3.7,1.8-5.9,4.2l0.7,1.1c0.8-0.9,1.9-1.6,3-2c0.3,0,0.3,0.4,0.1,1.8c-0.8,4.5-2,9.7-3.1,14.3l0.3,0.3c1-0.4,2-0.6,3-0.8
		c0.5-2.8,1-5.5,1.7-8.3c0.8-1.9,1.8-3.7,3-5.3c1-1.4,1.7-1.8,2.2-1.8s1,0.3,1.4,0.7c0.2,0.2,0.5,0.2,0.9-0.1
		C234.7,103.2,235.1,102.8,235.4,102.3z"/>
	<path d="M248.9,115.8c-0.3,0-0.4-0.3-0.1-1.8c1-5.4,2.2-11.2,2.9-13.8l-0.1-0.2c-0.5,0-1.1-0.1-1.6-0.2c-0.8-0.2-1.7-0.3-2.6-0.3
		c-2.9,0.2-5.7,1.4-7.9,3.3c-3.2,2.9-5.1,7.1-5.1,11.5c0,3.4,1.4,4.8,2.5,4.8c1.4-0.2,2.8-0.9,3.9-1.9c2.1-1.7,3.9-3.7,5.5-5.9h0.1
		l-0.9,4c-0.6,3.1,0,3.7,0.8,3.7c1.1,0,3.9-1.6,6.2-4.4l-0.5-1C251.1,114.5,250.1,115.3,248.9,115.8z M247,108
		c-1.5,2.9-6.3,8.3-7.9,8.3c-0.5,0-1.1-0.9-1.1-2.8c0-4.2,1.7-9.2,4.6-11.3c0.9-0.6,1.9-0.9,3-0.9c0.9,0,1.9,0.2,2.8,0.6
		C248.1,103.2,247.5,106.3,247,108z"/>
	<path d="M269.3,115.9c-0.3,0-0.3-0.3-0.1-1.5c0.7-2.9,1.4-5.9,2.1-8.8c1.3-5.5,0.1-6.1-0.9-6.1c-1.1,0-2.1,0.3-2.9,0.9
		c-3,2-5.7,4.5-7.8,7.5h-0.1l0.9-3.7c0.8-3.3,0.7-4.7-0.3-4.7c-1.2,0-3.7,1.5-6,4l0.6,1c0.8-0.8,1.8-1.5,2.8-1.9
		c0.2,0,0.3,0.3,0,1.7c-1,4.7-2.3,9.8-3.4,14.4l0.3,0.3c1-0.3,2.1-0.6,3.1-0.8c0.5-2.6,1.1-5.1,1.6-7.2c2.1-3.6,7-8.9,8.9-8.9
		c0.6,0,0.9,0.7,0.3,3.1c-0.8,3.1-1.5,6.2-2.3,9.4s-0.4,4.4,0.7,4.4c1.1,0,3.5-1.4,6-4.1l-0.7-1
		C271.3,114.8,270.4,115.5,269.3,115.9z"/>
	<path d="M283.7,99.5c-1.7,0.2-3.4,0.9-4.7,2c-1.3,0.9-2.1,2.5-2.2,4.1c0,2.2,1.7,3.6,3.7,5.2s2.5,2.5,2.5,3.6v0.1
		c-0.1,1.4-1.4,2.5-2.8,2.4c-1.7-0.2-3.2-1.1-4.1-2.6c-0.2-0.3-0.6-0.3-1.1-0.1c-0.7,0.3-1.2,1-1.2,1.8c0,1.5,2.3,3,4.2,3.1
		c3.5,0,7.7-3.2,7.7-6.4c0-1.9-1.1-3.1-3.6-5c-1.6-1.2-2.8-2.3-2.8-3.8v-0.1c0-1.3,1-2.3,2.3-2.3c1.3,0.1,2.6,0.8,3.3,1.9l0.1,0.1
		c0.3,0.3,0.6,0.3,0.9,0.1c0.7-0.3,1.1-1,1.1-1.7C287,100.8,285.6,99.5,283.7,99.5z"/>
	<path d="M292.1,116.1c-0.3,0-0.4-0.3-0.2-1.5c1.8-8.5,3.6-16.7,5.3-24.9c0.1-0.9,0.1-1.3-0.3-1.3c-2.1,0.6-4.2,1.1-6.3,1.5l-0.2,1
		h1.1c2,0,2.2,0.3,1.8,2.1c-1.4,7-2.9,14-4.4,21c-0.9,4.1-0.2,5.1,0.6,5.1c1.3,0,4.3-2,6.5-4.6l-0.5-0.7
		C294.6,114.8,293.4,115.6,292.1,116.1z"/>
	<path d="M311.7,115.7c-0.3,0-0.4-0.3-0.1-1.8c0.9-5.4,2.2-11.2,2.9-13.8l-0.1-0.2c-0.5,0-1.1-0.1-1.6-0.2c-0.8-0.2-1.7-0.3-2.6-0.3
		c-2.9,0.2-5.7,1.4-7.9,3.3c-3.2,2.9-5.1,7.1-5.1,11.5c0,3.4,1.4,4.8,2.5,4.8c1.4-0.1,2.8-0.8,3.9-1.8c2.1-1.7,3.9-3.7,5.5-5.9h0.1
		l-0.9,4c-0.6,3.1,0,3.7,0.8,3.7c1.1,0,3.9-1.6,6.2-4.4l-0.6-1.1C313.9,114.4,312.9,115.2,311.7,115.7z M309.8,108
		c-1.4,2.9-6.2,8.3-7.9,8.3c-0.5,0-1.1-0.9-1.1-2.8c0-4.2,1.7-9.2,4.6-11.3c0.9-0.6,1.9-0.9,3-0.9c0.9,0,1.9,0.2,2.8,0.6
		C310.9,103.2,310.3,106.3,309.8,108z"/>
	<path d="M323.4,101.8l4.2-0.2l1.2-1.3h-4.9l1.5-6.4l-0.4-0.3l-3.2,2.6l-1,4h-2.5l-1.1,1.3l0.1,0.4h3.1l-2.5,11.6
		c-0.9,4.4-0.1,5.6,0.9,5.6c2.2,0,5.4-2.9,6.8-4.6l-0.6-0.9c-1,1.1-3.1,2.5-3.8,2.5c-0.5,0-0.7-0.5-0.3-2.6L323.4,101.8z"/>
	<path d="M339,99.4c-1.6,0.1-3.2,0.6-4.6,1.4c-4.2,2.4-6.6,6.8-6.5,11.6c0,3.4,1.6,6.6,5.7,6.6c2.4-0.1,4.7-1.1,6.5-2.7
		c2.9-2.6,4.5-6.4,4.5-10.3C344.6,101.8,342.5,99.4,339,99.4z M336.4,117.1c-0.4,0.2-0.9,0.2-1.3,0.3c-2.3,0-3.6-2-3.6-5.1
		c0-6.6,2.8-10.1,4.5-10.8c0.5-0.3,1-0.4,1.6-0.4c1.9,0,3.4,1.7,3.4,5.1C341,111.6,338.7,116.1,336.4,117.1z"/>
	<path d="M359.8,103.5c0.4-0.3,0.8-0.7,1.1-1.2s0.3-1.2,0-1.8c-0.4-0.7-1.1-1.1-1.8-1.1c-1.7,0-4.2,2.8-6.4,7h-0.1l0.4-2.1
		c0.6-2.9,0.7-4.9-0.5-4.9s-3.8,1.8-6,4.2l0.8,1.1c0.8-0.9,1.9-1.6,3-2c0.4,0,0.4,0.4,0.1,1.8c-0.8,4.5-2,9.7-3.1,14.3l0.3,0.3
		c1-0.4,2-0.6,3-0.8c0.5-2.8,1-5.5,1.7-8.3c0.8-1.9,1.8-3.7,3-5.3c1-1.4,1.7-1.8,2.2-1.8s1,0.3,1.4,0.7
		C359.1,103.8,359.4,103.8,359.8,103.5z"/>
	<path d="M369.1,99.5c-1.7,0.2-3.4,0.9-4.7,2c-1.3,0.9-2.1,2.5-2.2,4.1c0,2.2,1.7,3.6,3.7,5.2s2.5,2.5,2.5,3.6v0.1
		c-0.1,1.4-1.4,2.5-2.8,2.4c-1.7-0.2-3.2-1.1-4.1-2.6c-0.2-0.3-0.6-0.3-1.1-0.1c-0.7,0.3-1.1,1-1.2,1.8c0,1.5,2.3,3,4.3,3.2
		c3.5,0,7.7-3.2,7.7-6.4c0-1.9-1.1-3.1-3.6-5c-1.6-1.2-2.8-2.3-2.8-3.8v-0.1c0-1.3,1-2.3,2.3-2.3c1.3,0.1,2.6,0.8,3.3,1.9l0.1,0.1
		c0.2,0.2,0.6,0.2,0.8,0c0.7-0.3,1.1-1,1.1-1.7C372.4,100.8,371,99.5,369.1,99.5z"/>
</g>
</svg>
